<svg width="615" height="83" viewBox="0 0 615 83" fill="none" xmlns="http://www.w3.org/2000/svg">
<path d="M82.9602 82.9221C81.0186 81.5053 79.529 80.4374 78.0607 79.3301C73.3614 75.817 68.7288 72.1917 63.9355 68.8091C62.6492 67.902 60.8775 67.2679 59.3242 67.2497C49.1096 67.1132 38.8889 67.2194 28.6712 67.1375C26.9116 67.1253 25.1581 66.5975 23.3985 66.3153C23.3803 66.0423 23.3591 65.7723 23.3409 65.4962C25.8923 63.5576 28.4103 61.5675 31.0254 59.72C31.5775 59.3316 32.4785 59.3407 33.2248 59.3377C43.0997 59.3104 52.9776 59.2801 62.8525 59.3802C64.0144 59.3923 65.3128 59.9505 66.2958 60.624C69.1414 62.5838 71.8657 64.7256 75.0937 67.1344C75.0937 64.2706 75.0937 61.9498 75.0937 59.3377C77.8028 59.3377 80.2207 59.3377 82.7812 59.3377C82.7812 47.3392 82.7812 35.6471 82.7812 23.6911C79.2347 23.6911 75.846 23.6062 72.4755 23.7912C72.0023 23.8185 71.2438 25.1716 71.2256 25.9209C71.1194 31.4515 71.1922 36.988 71.1619 42.5246C71.1194 48.3525 68.1797 51.3104 62.3398 51.3195C52.1281 51.3498 41.9074 51.2558 31.6867 51.3893C30.1304 51.4135 28.3466 52.0294 27.0754 52.9426C21.3265 57.0503 15.7292 61.3521 10.0682 65.5872C9.48876 66.0211 8.86077 66.3881 7.83537 67.0616C7.83537 62.3745 7.78379 58.1515 7.86267 53.9437C7.89301 52.3267 7.72008 51.3984 5.74511 51.004C2.35338 50.3244 0.0719947 47.2846 0.0537922 43.7472C-0.00991663 31.7397 -0.0220516 19.7351 0.0446909 7.73054C0.0628934 3.38925 3.30294 0.0612196 7.62907 0.0430171C26.2775 -0.017658 44.923 -0.014624 63.5684 0.0551523C67.7762 0.0733548 70.9192 3.32857 71.1225 7.53032C71.2104 9.39911 71.2711 11.2831 71.1346 13.1488C70.9799 15.1845 71.535 16.0643 73.7952 15.9004C76.7592 15.6911 79.7535 15.8185 82.7235 15.8671C87.5593 15.9429 90.8752 18.9494 90.9177 23.7821C91.0421 35.6138 91.0117 47.4515 90.9177 59.2861C90.8813 63.321 88.5787 66.0939 84.7106 66.9706C83.303 67.2861 82.9238 67.8534 82.945 69.1762C83.0026 72.7529 82.9602 76.3267 82.9541 79.9005C82.9602 80.7165 82.9602 81.5326 82.9602 82.9221ZM62.8919 43.5197C63.0952 42.9494 63.2074 42.7916 63.2074 42.6339C63.2377 31.6638 63.2256 20.6998 63.2954 9.72372C63.3075 7.94897 62.3398 7.87616 61.0201 7.87616C44.0887 7.8974 27.1634 7.91864 10.2351 7.85493C8.3238 7.84886 7.78683 8.44954 7.80503 10.3365C7.89301 20.6301 7.8475 30.9205 7.8657 41.2141C7.8657 41.9361 7.99009 42.6612 8.07807 43.6077C10.7599 43.6077 13.1899 43.6077 15.9416 43.6077C15.9416 46.15 15.9416 48.4556 15.9416 51.2679C19.1816 48.8349 21.8998 46.6718 24.7576 44.7271C25.7315 44.0506 27.0481 43.5956 28.2252 43.5622C32.9002 43.4348 37.5783 43.5136 42.2593 43.5197C49.1278 43.5197 56.0113 43.5197 62.8919 43.5197Z" fill="#F22BB2"/>
<path d="M22.6249 30.4079C25.0343 30.4079 26.9874 28.4548 26.9874 26.0454C26.9874 23.636 25.0343 21.6829 22.6249 21.6829C20.2155 21.6829 18.2624 23.636 18.2624 26.0454C18.2624 28.4548 20.2155 30.4079 22.6249 30.4079Z" fill="#F22BB2"/>
<path d="M37.4144 30.4079C39.8238 30.4079 41.777 28.4548 41.777 26.0454C41.777 23.636 39.8238 21.6829 37.4144 21.6829C35.0051 21.6829 33.0519 23.636 33.0519 26.0454C33.0519 28.4548 35.0051 30.4079 37.4144 30.4079Z" fill="#2EC5CE"/>
<path d="M52.204 30.4079C54.6133 30.4079 56.5665 28.4548 56.5665 26.0454C56.5665 23.636 54.6133 21.6829 52.204 21.6829C49.7946 21.6829 47.8414 23.636 47.8414 26.0454C47.8414 28.4548 49.7946 30.4079 52.204 30.4079Z" fill="#2BB140"/>
<path d="M174.92 19.2L155.72 64H143.24L124.104 19.2H137.8L149.96 48.384L162.376 19.2H174.92ZM205.996 55.296H187.052L183.532 64H170.604L190.38 19.2H202.86L222.7 64H209.516L205.996 55.296ZM202.284 45.952L196.524 31.616L190.764 45.952H202.284ZM260.725 40.64C263.285 41.536 265.29 42.944 266.741 44.864C268.191 46.7413 268.917 49.024 268.917 51.712C268.917 55.6373 267.338 58.6667 264.181 60.8C261.023 62.9333 256.458 64 250.485 64H226.293V19.2H249.205C254.922 19.2 259.274 20.2667 262.261 22.4C265.247 24.4907 266.741 27.328 266.741 30.912C266.741 33.0453 266.207 34.9653 265.141 36.672C264.117 38.336 262.645 39.6587 260.725 40.64ZM238.837 28.352V36.992H247.541C251.807 36.992 253.941 35.5413 253.941 32.64C253.941 29.7813 251.807 28.352 247.541 28.352H238.837ZM249.461 54.848C253.898 54.848 256.117 53.3333 256.117 50.304C256.117 47.2747 253.898 45.76 249.461 45.76H238.837V54.848H249.461ZM311.448 54.208V64H275.48V19.2H310.616V28.992H288.024V36.544H307.928V46.016H288.024V54.208H311.448Z" fill="#F22BB2"/>
<path d="M351.377 10.112H362.193L341.073 70.4H330.257L351.377 10.112ZM416.725 40.64C419.285 41.536 421.29 42.944 422.741 44.864C424.191 46.7413 424.917 49.024 424.917 51.712C424.917 55.6373 423.338 58.6667 420.181 60.8C417.023 62.9333 412.458 64 406.485 64H382.293V19.2H405.205C410.922 19.2 415.274 20.2667 418.261 22.4C421.247 24.4907 422.741 27.328 422.741 30.912C422.741 33.0453 422.207 34.9653 421.141 36.672C420.117 38.336 418.645 39.6587 416.725 40.64ZM394.837 28.352V36.992H403.541C407.807 36.992 409.941 35.5413 409.941 32.64C409.941 29.7813 407.807 28.352 403.541 28.352H394.837ZM405.461 54.848C409.898 54.848 412.117 53.3333 412.117 50.304C412.117 47.2747 409.898 45.76 405.461 45.76H394.837V54.848H405.461ZM467.384 29.312V64H455.8V60.288C454.52 61.696 452.984 62.7627 451.192 63.488C449.4 64.2133 447.501 64.576 445.496 64.576C441.016 64.576 437.432 63.2533 434.744 60.608C432.099 57.9627 430.776 53.9947 430.776 48.704V29.312H442.936V46.72C442.936 49.3227 443.427 51.2213 444.408 52.416C445.389 53.6107 446.819 54.208 448.696 54.208C450.616 54.208 452.173 53.5467 453.368 52.224C454.605 50.8587 455.224 48.7893 455.224 46.016V29.312H467.384ZM499.153 62.592C498.129 63.232 496.87 63.7227 495.377 64.064C493.926 64.4053 492.369 64.576 490.705 64.576C486.182 64.576 482.705 63.4667 480.273 61.248C477.841 59.0293 476.625 55.7227 476.625 51.328V39.68H471.569V30.592H476.625V21.568H488.785V30.592H496.721V39.68H488.785V51.2C488.785 52.4373 489.105 53.4187 489.745 54.144C490.427 54.8267 491.323 55.168 492.433 55.168C493.841 55.168 495.078 54.8053 496.145 54.08L499.153 62.592ZM527.09 62.592C526.066 63.232 524.807 63.7227 523.314 64.064C521.863 64.4053 520.306 64.576 518.642 64.576C514.119 64.576 510.642 63.4667 508.21 61.248C505.778 59.0293 504.562 55.7227 504.562 51.328V39.68H499.506V30.592H504.562V21.568H516.722V30.592H524.658V39.68H516.722V51.2C516.722 52.4373 517.042 53.4187 517.682 54.144C518.365 54.8267 519.261 55.168 520.37 55.168C521.778 55.168 523.015 54.8053 524.082 54.08L527.09 62.592ZM548.187 64.576C544.475 64.576 541.126 63.808 538.139 62.272C535.152 60.736 532.806 58.6027 531.099 55.872C529.435 53.1413 528.603 50.048 528.603 46.592C528.603 43.1787 529.435 40.1067 531.099 37.376C532.806 34.6453 535.131 32.5333 538.075 31.04C541.062 29.504 544.432 28.736 548.187 28.736C551.942 28.736 555.312 29.504 558.299 31.04C561.286 32.5333 563.611 34.6453 565.275 37.376C566.939 40.064 567.771 43.136 567.771 46.592C567.771 50.048 566.939 53.1413 565.275 55.872C563.611 58.6027 561.286 60.736 558.299 62.272C555.312 63.808 551.942 64.576 548.187 64.576ZM548.187 54.912C550.32 54.912 552.07 54.1867 553.435 52.736C554.8 51.2427 555.483 49.1947 555.483 46.592C555.483 44.032 554.8 42.0267 553.435 40.576C552.07 39.1253 550.32 38.4 548.187 38.4C546.054 38.4 544.304 39.1253 542.939 40.576C541.574 42.0267 540.891 44.032 540.891 46.592C540.891 49.1947 541.574 51.2427 542.939 52.736C544.304 54.1867 546.054 54.912 548.187 54.912ZM595.996 28.736C600.305 28.736 603.761 30.016 606.364 32.576C609.009 35.136 610.332 38.9973 610.332 44.16V64H598.172V46.144C598.172 41.408 596.273 39.04 592.476 39.04C590.385 39.04 588.7 39.7227 587.42 41.088C586.183 42.4533 585.564 44.5013 585.564 47.232V64H573.404V29.312H584.988V33.088C586.353 31.68 587.975 30.6133 589.852 29.888C591.729 29.12 593.777 28.736 595.996 28.736Z" fill="#474A57"/>
</svg>
